<?xml version="1.0" standalone="no"?><!DOCTYPE svg PUBLIC "-//W3C//DTD SVG 1.1//EN" "http://www.w3.org/Graphics/SVG/1.1/DTD/svg11.dtd"><svg t="1681056769529" class="icon" viewBox="0 0 1024 1024" version="1.1" xmlns="http://www.w3.org/2000/svg" p-id="10089" xmlns:xlink="http://www.w3.org/1999/xlink" width="200" height="200"><path d="M634.88 306.7904c0 36.1984-29.3376 65.536-65.536 65.536H208.896c-36.1984 0-65.536-29.3376-65.536-65.536V224.256C143.36 188.0576 172.6976 158.72 208.896 158.72h360.448c36.1984 0 65.536 29.3376 65.536 65.536v82.5344z m81.92 492.9536c0 36.1984-29.3376 65.536-65.536 65.536H208.896c-36.1984 0-65.536-29.3376-65.536-65.536v-82.5344c0-36.1984 29.3376-65.536 65.536-65.536h442.368c36.1984 0 65.536 29.3376 65.536 65.536v82.5344z m163.84-246.4768c0 36.1984-29.3376 65.536-65.536 65.536H208.896c-36.1984 0-65.536-29.3376-65.536-65.536V470.7328c0-36.1984 29.3376-65.536 65.536-65.536h606.208c36.1984 0 65.536 29.3376 65.536 65.536v82.5344z" fill="#6464FF" p-id="10090"></path></svg>