<?xml version="1.0" standalone="no"?><!DOCTYPE svg PUBLIC "-//W3C//DTD SVG 1.1//EN" "http://www.w3.org/Graphics/SVG/1.1/DTD/svg11.dtd"><svg t="1681056662312" class="icon" viewBox="0 0 1028 1024" version="1.1" xmlns="http://www.w3.org/2000/svg" p-id="6464" xmlns:xlink="http://www.w3.org/1999/xlink" width="200.78125" height="200"><path d="M514.270493 1023.989803a511.98874 511.98874 0 1 1 429.985564-237.511789 42.488692 42.488692 0 1 1-71.80589-45.462901 424.886922 424.886922 0 1 0-121.092772 125.341642A42.488692 42.488692 0 1 1 799.369617 939.012418 509.864306 509.864306 0 0 1 514.270493 1023.989803z m157.208161-352.656145a42.488692 42.488692 0 0 0 0-59.909056l-114.719469-114.719469V259.193344a42.488692 42.488692 0 0 0-84.977385 0v272.352517l139.787798 139.787797a42.488692 42.488692 0 0 0 59.909056 0z" fill="#3E2AD1" p-id="6465"></path></svg>