<?xml version="1.0" encoding="utf-8"?>
<!-- Generator: Adobe Illustrator 15.1.0, SVG Export Plug-In . SVG Version: 6.00 Build 0)  -->
<!DOCTYPE svg PUBLIC "-//W3C//DTD SVG 1.1//EN" "http://www.w3.org/Graphics/SVG/1.1/DTD/svg11.dtd">
<svg version="1.1" id="Layer_1" xmlns="http://www.w3.org/2000/svg" xmlns:xlink="http://www.w3.org/1999/xlink" x="0px" y="0px"
	 width="864px" height="864px" viewBox="0 0 864 864" enable-background="new 0 0 864 864" xml:space="preserve">
<path fill="#00A651" d="M848.294,333c0,200.029-179.086,362.184-400,362.184s-400-162.154-400-362.184H848.294z"/>
<g>
	<path fill="#00A651" d="M62.84,418.625c-0.214-0.012-0.326-0.031-0.395-0.051c-0.01,0.009-0.021,0.019-0.03,0.026
		C62.522,418.609,62.65,418.614,62.84,418.625z"/>
	<path fill="#00A651" d="M62.415,418.601c-0.002,0-0.005,0-0.007-0.001c-0.022,0.028-0.059,0.063-0.12,0.107
		C62.328,418.679,62.373,418.635,62.415,418.601z"/>
	<path fill="#8DC63F" d="M98.423,379.217c-5.959-5.677-14.311-11.272-22.807-8.244c-17.987,6.41-8.668,30.08-11.036,43.572
		c-0.333,1.899-1.372,3.384-2.135,4.029c0.068,0.02,0.181,0.039,0.395,0.051c-0.189-0.011-0.317-0.016-0.425-0.024
		c-0.042,0.034-0.087,0.078-0.127,0.106c0.062-0.045,0.098-0.079,0.12-0.107c-0.37-0.031-0.442-0.114-1.531-0.684
		c-0.069-0.036-0.143-0.083-0.213-0.123c0.961,3.583,1.985,7.143,3.063,10.683c13.926-1.221,10.935-23.466,10.457-32.789
		c-0.244-4.772-0.437-16.675,7.296-15.573c3.717,0.53,7.155,3.76,9.839,6.126c3.729,3.287,6.927,7.167,9.901,11.135
		c1.455,1.942,2.933,3.977,4.079,6.122c0.801,1.497,2.056,2.337,3.405,2.666c-1.853-7.005-3.451-14.1-4.782-21.277
		C102.161,382.926,100.327,381.03,98.423,379.217z"/>
	<path fill="#8DC63F" d="M62.445,418.574c-0.006-0.002-0.018-0.003-0.023-0.005c-0.003,0.01-0.004,0.018-0.014,0.03
		c0.002,0.001,0.005,0.001,0.007,0.001C62.425,418.593,62.436,418.583,62.445,418.574z"/>
	<path fill="#8DC63F" d="M62.422,418.569C62.456,418.482,62.273,418.521,62.422,418.569L62.422,418.569z"/>
	<path fill="#8DC63F" d="M126.152,455.23c-6.282,6.047-4.922,16.057-3.202,23.655c1.202,5.315,5.746,16.032,1.358,20.819
		c-4.321,4.716-12.462,1.561-17.46-0.066c-5.118-1.665-10.153-3.572-15.206-5.428c2.619,4.726,5.345,9.395,8.183,14
		c4.933,1.679,9.918,3.047,15.018,3.644c7.914,0.927,17.232-2.628,19.97-10.629c2.655-7.761-0.165-16.414-1.996-24.043
		c-0.725-3.019-1.9-7.796-1.171-11.438c-1.821-3.541-3.571-7.117-5.251-10.729C126.315,455.09,126.23,455.154,126.152,455.23z"/>
	<path fill="#8DC63F" d="M180.216,548.699c2.211,5.123,6.61,9.669,5.259,15.514c-0.517-0.125-1.174-0.469-1.597-0.661
		c-2.749-1.248-5.315-2.931-7.92-4.448c-5.799-3.379-11.193-5.492-17.982-4.916c-7.983,0.678-13.216,4.466-15.321,10.299
		c3.031,3.274,6.125,6.5,9.28,9.676c-0.741-2.898-1.188-6.279,1.053-8.378c3.463-3.243,10.503-1.887,14.23-0.065
		c7.345,3.587,20.595,14.899,26.923,3.759c3.246-5.716,1.433-12.749-1.235-18.236c-1.113-2.29-2.364-4.381-3.324-6.47
		c-3.703-3.705-7.313-7.49-10.822-11.352C177.448,538.502,177.914,543.363,180.216,548.699z"/>
	<path fill="#8DC63F" d="M251.043,600.122c-5.974,3.394-8.088,10.745-5.075,16.802c1.504,3.024,4.664,5.22,7.139,7.381
		c0.982,0.857,2.265,1.867,2.739,3.134c0.041,0.23,0.063,0.463,0.089,0.694c-2.175,0.039-4.255,0.246-6.4,1.046
		c-3.114,1.16-5.859-0.086-9.035,0.052c-4.345,0.188-7.042,3.327-8.063,7.105c3.383,1.98,6.799,3.918,10.251,5.809
		c-0.249-0.479-0.482-0.969-0.688-1.474c-0.248-0.469-0.263-0.944-0.072-1.425c0.022,0.001,0.038,0.002,0.062,0.004
		c1.506,0.101,3,0.46,4.516,0.554c3.537,0.22,6.546-1.815,10.03-1.74c7.302,0.157,9.896-4.026,9.329-11.063
		c-0.603-7.488-7.697-9.6-11.262-15.124c-0.802-1.243,0.743-3.054,1.979-3.171c2.94-0.278,6.153,1.201,8.769,2.354
		c5.859,2.584,11.756,6.795,18.185,7.762c3.295,0.495,5.605-1.899,6.156-4.435c-10.455-4.857-20.603-10.179-30.414-15.93
		C256.502,598.176,253.747,598.587,251.043,600.122z"/>
	<path fill="#8DC63F" d="M334.738,645.391c-2.144,5.44,0.325,10.837,3.765,15.007c1.752,2.125,6.191,5.345,5.212,7.274
		c-2.67,5.257-8.511,5.462-13.58,5.635c-3.033,0.104-5.764,0.783-8.034,2.153c6.758,2.052,13.597,3.943,20.51,5.673
		c1.989-0.842,3.905-1.998,5.788-3.598c4.009-3.405,6.846-8.968,4.918-14.188c-1.564-4.239-5.2-6.677-7.85-10.125
		c-3.136-4.083-0.234-8.347,4.25-9.762c6.966-2.198,14.988-0.536,22.146-0.461c1.278,0.014,2.3-0.373,3.071-0.995
		c-10.19-1.996-20.215-4.394-30.054-7.174C340.538,636.627,336.935,639.814,334.738,645.391z"/>
	<path fill="#8DC63F" d="M463.546,661.523c2.109,4.837,8.46,6.738,13.044,8.156c2.93,0.906,6.471,1.375,9.767,2.22
		c-7.962,6.834-20.334,12.046-22.24,22.039c3.628-0.119,7.245-0.278,10.848-0.484c2.208-3.44,7.166-6.4,9.671-8.195
		c5.281-3.784,10.721-7.382,14.546-12.735c1.647-2.306,0.317-5.448-1.794-6.841c-7.357-4.854-17.473-3.656-24.907-8.53
		c0.307,0.2,0.928-1.369,1.548-2.342c1.421-2.229,3.612-4.085,5.53-5.871c0.364-0.339,0.735-0.672,1.105-1.005
		c-4.961,0.398-9.954,0.696-14.973,0.905C462.857,652.612,461.474,656.772,463.546,661.523z"/>
	<path fill="#8DC63F" d="M562.349,646.402c-0.339,12.92,19.065,13.944,27.718,15.721c4.729,0.971,5.988,2.852,6.098,6.895
		c3.275-1.171,6.527-2.383,9.76-3.629c-0.758-4.117-2.707-7.845-6.41-10.384c-3.699-2.536-8.851-2.943-13.138-3.632
		c-2.799-0.45-12.584-1.392-13.889-4.524c-0.833-2,2.355-5.847,3.796-7.661c3.778-4.762,8.085-9.108,12.115-13.652
		c0.792-0.893,1.192-1.863,1.294-2.822c-6.228,2.467-12.551,4.772-18.961,6.916C566.271,634.7,562.509,640.308,562.349,646.402z"/>
	<path fill="#8DC63F" d="M652.863,600c4.631-0.303,9.359-0.387,13.967,0.266c3.244,0.46,8.31,1.245,10.477,4.08
		c4.37,5.716-5.644,16.056-9.119,19.965c-4.119,4.633-9.265,9.813-9.346,16.293c5.565-3.104,11.04-6.327,16.421-9.666
		c3.518-4.033,7.247-7.887,9.771-12.766c4.421-8.549,4.401-17.698-3.947-23.556c-4.961-3.48-11.631-4.626-18.129-4.847
		c1.733-2.821,3.07-5.773,3.704-8.969c-5.921,4.245-11.994,8.323-18.217,12.221C647.28,596.142,648.834,600.264,652.863,600z"/>
	<path fill="#8DC63F" d="M720.875,536.675c5.155,3.74,12.229,4.592,18.805,4.086c-0.171,5.422,0.027,11.521,3.675,14.658
		c4.079,3.509,9.389,3.327,14.338,2.277c1.98-0.42,3.917-1.165,5.909-1.567c2.776-3.188,5.493-6.42,8.153-9.693
		c-6.027-1.143-11.978,0.612-17.97,1.883c-0.78,0.13-1.566,0.17-2.356,0.122c-1.391-0.004-1.013,0.605-1.13,0.048
		c-0.271-1.283-0.208-2.727-0.27-4.032c-0.147-3.148-0.165-6.305-0.166-9.456c-0.001-3.397-3.177-5.489-6.329-4.821
		c-4.964,1.052-10.198,0.912-15.032-0.664c-5.332-1.738-4.799-0.133-9.76,5.264C719.334,535.435,720.04,536.069,720.875,536.675z"/>
	<path fill="#8DC63F" d="M761.987,477.326c6.491,0.055,12.758-4.266,18.49-7.997c0.689,2.793,0.977,5.696,2.159,8.413
		c1.729,3.975,5.553,6.982,9.898,7.493c3.8,0.447,7.459-1.588,10.886-2.921c4.009-1.559,5.744-0.428,8.449,2.737
		c0.029,0.034,0.056,0.07,0.084,0.104c1.624-3.146,3.194-6.32,4.721-9.516c-5.886-5.375-12.067-4.575-19.101-1.687
		c-3.513,1.442-5.366,2.071-6.399-2.215c-1.057-4.379-1.505-8.357-3.994-12.263c-1.494-2.344-4.381-3.143-6.841-1.794
		c-4.395,2.408-8.561,5.521-13.083,7.754c-2.046,3.989-4.182,7.934-6.403,11.831C761.221,477.301,761.596,477.323,761.987,477.326z"
		/>
	<path fill="#8DC63F" d="M828.143,401.089c-3.229,3.303-5.899,7.306-9.063,10.722c0.146-0.71,0.297-1.414,0.437-2.099
		c0.924-4.526,1.898-9.002,2.493-13.588c1.098-8.462-1.263-16.628-9.094-20.913c-5.938-3.248-11.868-1.153-16.845,2.417
		c-0.887,5.57-1.934,11.092-3.135,16.564c0.235-0.222,0.47-0.445,0.703-0.67c3.475-3.358,8.059-10.124,13.465-9.938
		c7.563,0.26,4.852,13.322,4.064,17.329c-1.427,7.257-3.999,15.014-2.127,22.415c0.858,3.395,4.493,4.26,7.345,2.988
		c6.951-3.1,11.412-9.412,16.124-15.1c2.068-2.498,5.473-6.437,9.197-8.335c0.798-3.639,1.541-7.295,2.217-10.973
		C837.91,392.66,832.08,397.063,828.143,401.089z"/>
</g>
<path fill="#ED1C24" d="M798.596,333c0,175.177-156.835,317.184-350.302,317.184C254.828,650.184,97.993,508.177,97.993,333H798.596
	z"/>
<g>
	<path d="M255.007,406.387c-20.482,12.532-43.858,11.622-52.213-2.031c-8.354-13.655,1.476-34.884,21.958-47.417
		c20.481-12.532,52.213,2.031,52.213,2.031S275.489,393.855,255.007,406.387z"/>
	<path d="M356.532,490.232c-11.78,20.923-32.639,31.516-46.587,23.662c-13.949-7.854-15.706-31.184-3.923-52.105
		c11.781-20.922,46.587-23.662,46.587-23.662S368.315,469.311,356.532,490.232z"/>
	<path d="M490.742,512.735c-0.469,24.006-13.824,43.214-29.828,42.901c-16.005-0.312-28.601-20.028-28.131-44.034
		c0.471-24.007,29.83-42.902,29.83-42.902S491.211,488.728,490.742,512.735z"/>
	<path d="M604.398,447.681c11.843,20.886,10.155,44.219-3.771,52.116c-13.925,7.896-34.814-2.638-46.658-23.525
		c-11.842-20.888,3.771-52.116,3.771-52.116S592.556,426.792,604.398,447.681z"/>
	<path d="M680.764,361.927c16.757,17.195,21.048,40.192,9.583,51.365c-11.463,11.173-34.343,6.289-51.101-10.908
		c-16.758-17.197-9.584-51.366-9.584-51.366S664.005,344.729,680.764,361.927z"/>
</g>
<path d="M860.756,219.526c-2.046-0.818-5.318,0.818-6.955,4.91c-7.774,16.776-33.961,72.013-54.828,72.422
	c-13.094,0-17.595-24.141-18.004-36.825c-0.409-4.5-0.409-9.411,0-14.321c3.683,0.818,7.774,1.228,11.866,0.818
	c8.593-1.637,19.64-7.365,27.005-27.414c3.273-10.229,2.455-19.64-2.455-25.368c-3.273-4.091-10.229-8.183-23.322-6.137
	c-33.143,4.91-45.826,42.962-44.189,67.921c0.145,2.335,0.369,4.604,0.657,6.818c-9.446,25.633-20.575,43.785-22.346,45.555
	c-2.046,2.045-3.272,2.455-4.091,2.455c-0.818-0.409-1.637-2.455-1.637-6.546c0-22.913,4.5-54.01,13.911-93.29
	c0.409-0.818,0.409-1.637,0.409-2.455c2.864-11.047,2.046-18.412-2.046-22.504c-2.864-3.683-8.184-4.91-15.139-4.092
	c-30.278,3.273-51.555,68.331-57.692,90.834c0.409-18.412,3.273-35.597,4.501-40.917c2.455-11.047,1.637-18.412-2.046-22.913
	c-3.273-3.273-8.184-4.501-15.14-3.683c-23.731,2.455-38.87,38.871-46.645,65.057c2.046-19.23,4.501-30.687,8.593-49.918
	l1.228-5.319c0.409-4.501-1.228-8.184-4.092-10.229c-8.184-6.137-24.55-0.409-26.187,0c-2.864,1.228-4.91,7.365-8.184,22.914
	c-0.66,3.433-1.618,9.729-2.489,17.551c-3.725,5.339-8.695,10.576-15.102,13.545c2.455-13.912,2.455-28.642-0.409-42.144
	c-3.273-14.73-13.503-31.506-31.097-29.46c-8.184,1.228-14.73,5.319-19.23,12.275c-4.092,5.728-5.729,12.684-6.138,18.821
	c-2.455,0-4.91,0.818-7.774,2.455c-2.89,1.444-6.625,11.958-8.214,24.784c-13.911,24.93-36.992,46.807-53.162,48.457
	c-4.91,0.818-9.002,0-12.275-2.864c-6.138-5.319-9.411-15.548-9.411-29.869c0-29.869,12.275-57.283,24.141-68.74
	c4.501-4.5,9.001-6.546,13.093-6.546c4.501,0,7.365,5.728,8.184,11.047c1.228,7.365-0.818,15.958-2.455,18.822
	c-0.818,2.864,1.228,5.319,3.273,6.137s4.91,0.409,6.547-2.864l0.409-0.818c1.637-4.91,4.092-11.866,2.864-22.095
	c-0.409-2.455-3.683-24.959-31.916-22.504c-30.493,2.939-53.064,43.48-55.876,73.943c-9.407,22.719-26.138,56.609-37.823,57.808
	c-2.455,0-4.91-0.818-6.546-2.455c-6.547-5.729-10.229-23.322-10.229-46.236c0-8.183,0.818-16.775,1.228-25.777
	c16.367-19.64,29.869-40.916,40.098-61.375c12.275-25.777,18.413-49.509,17.594-69.149c-0.409-9.82-3.683-17.594-9.001-22.095
	c-4.501-4.092-11.048-5.729-18.822-5.319c-22.095,2.046-38.871,26.187-49.918,71.604c-8.184,33.551-10.229,69.558-10.638,79.378
	c-0.021,2.571-0.009,5.144,0.034,7.712c-10.288,21.486-33.037,65.165-51.585,65.528c-13.093,0-17.594-24.141-18.003-36.825
	c-0.409-4.5-0.409-9.411,0-14.321c3.682,0.818,7.774,1.228,11.866,0.818c8.592-1.637,19.64-7.365,27.005-27.414
	c3.273-10.229,2.455-19.64-2.455-25.368c-3.273-4.091-10.229-8.183-23.322-6.137c-31.806,4.712-44.762,39.941-44.309,64.835
	c-8.022,12.965-17.768,22.229-25.657,23.544c6.138-19.231,8.593-39.689,8.593-49.918c0-4.092,0-7.774-0.409-10.229
	c-1.228-20.458-9.82-22.914-13.912-22.914c-22.095,0-22.913,47.054-22.913,47.463c0,10.638,3.273,29.869,12.684,39.28
	c-5.319,12.275-11.048,20.049-14.73,22.913c-0.818,0.818-1.228,0.818-1.637,0.409c-1.637-0.409-3.273-2.455-4.092-4.501
	c-8.183-22.913-7.365-59.738-3.682-76.514c0.409-1.637-0.409-2.864-0.818-3.683c-0.409-0.409-1.637-2.045-3.273-2.045
	c-3.273-0.409-11.866-0.818-20.458,3.682c-3.682,1.637-6.137,5.319-6.956,9.411c-0.818,4.091-0.818,8.183-0.818,12.684
	c-5.319,41.325-13.093,70.376-20.867,73.24c-1.228,0.409-1.637,0.409-1.637,0.409c-1.228-0.818-2.046-2.864-2.864-4.91l-0.409-0.409
	c-9.001-24.141-2.455-78.969,0.818-93.29c0-1.227-0.818-2.864-1.228-3.273c-0.409-0.818-1.637-2.046-3.273-2.455
	c-4.091-0.409-15.548,0-23.731,4.092c-3.683,2.045-6.138,5.319-6.546,9.411c-2.455,14.73-1.228,51.964,2.045,70.376
	c3.273,16.366,13.093,34.779,30.688,34.779c0.818,0,1.228,0,2.046-0.409c15.548-1.228,23.731-24.959,28.642-49.509
	c0,1.228,0.409,2.045,0.409,3.273c4.091,21.277,16.366,34.779,31.505,34.779c0.409,0,0.818,0,1.228-0.409
	c15.139-0.818,25.368-16.367,31.915-31.915c0,0,0.409,0,0.818,0s0.409,0,0.818,0c9.933,0,20.458-6.915,29.334-18.095
	c4.997,26.105,20.573,42.446,42.677,43.872c0.409,0,0.818,0,1.228,0c23.393,0,44.25-32.185,56.569-57.009
	c3.729,38.01,15.358,69.95,36.716,70.921c0.409,0,0.409,0,0.818,0c13.093,0,26.596-18.821,35.597-34.37
	c3.738-6.542,7.533-13.974,11.096-21.707c3.517,16.368,11.21,25.782,17.545,31.118c7.365,6.547,16.776,9.82,26.187,9.82
	c1.228,0,2.455,0,3.683,0c23.732-2.455,42.144-22.504,53.192-38.871c1.426-2.115,2.78-4.229,4.07-6.325
	c0.262,2.714,0.666,5.388,1.249,7.962c1.228,4.91,6.138,22.504,19.641,30.278c4.092,2.864,9.001,4.092,13.911,4.092
	c3.273,0,6.547-0.409,9.82-1.637c9.001-2.455,18.412-14.321,24.141-31.097c0.818-2.046,1.637-4.092,2.046-6.137
	c6.282-1.485,11.669-4.629,16.183-8.576c-0.957,13.836-1.202,29.384,0.59,42.127c3.273,22.913,15.549,25.777,22.505,25.777
	c1.637,0,2.454-0.409,3.272-0.409c0.409,0,0.818,0,1.228,0c0.818,0,1.228-0.409,2.046-0.818c0.409-0.409,0.409-0.818,0.818-1.228
	c0-0.409,0.409-0.818,0.409-0.818c8.593-49.1,25.368-85.924,29.46-92.062c4.092-6.546,6.547-7.774,6.956-7.774
	c0,0,1.228,1.228-0.409,7.365c-2.046,8.184-6.956,49.509-1.637,65.057c3.683,12.275,18.003,13.912,24.55,12.275
	c2.455-0.409,3.273-1.228,3.683-2.045c0.409-0.409,0.409-0.409,0.409-0.818c6.547-44.19,31.097-90.016,35.598-96.563
	c4.091-6.547,7.364-7.774,8.183-7.365c0.818,0,1.228,2.045,0,5.728c-2.455,6.956-19.64,66.285-13.911,95.335
	c0.818,4.092,5.319,22.504,22.504,22.504c0.818,0,1.637,0,2.455,0c14.466-1.468,26.782-24.206,35.63-47.352
	c6.893,19.49,20.929,31.413,39.658,32.622c0.409,0,0.818,0,1.228,0c35.188,0,64.647-72.831,67.921-83.878
	C864.438,222.8,862.802,220.345,860.756,219.526z M796.108,204.796c3.273-3.273,6.138-4.91,9.001-4.5
	c0.409,0,0.818,0.409,1.228,0.818c2.046,4.091-1.228,16.775-5.318,23.731c-2.864,5.728-6.138,9.001-9.411,9.411
	c-2.864,0.818-5.729-0.818-8.184-2.455C785.879,220.345,790.38,210.116,796.108,204.796z M335.388,146.695
	c8.184-38.461,18.003-60.556,27.414-61.375c0,0,0,0,0.409,0c1.228,0,2.864,0.818,4.092,2.045c2.864,2.864,4.501,9.82,4.092,18.003
	c-2.046,31.506-22.914,73.24-45.827,105.974C328.023,188.839,331.297,165.926,335.388,146.695z M238.42,204.796
	c3.273-3.273,6.137-4.91,9.001-4.5c0.409,0,0.818,0.409,1.228,0.818c2.046,4.091-1.228,16.775-5.319,23.731
	c-2.864,5.728-6.137,9.001-9.411,9.411c-2.864,0.818-5.729-0.818-8.183-2.455C228.191,220.345,232.692,210.116,238.42,204.796z
	 M160.681,251.032c-1.637,6.546-3.683,13.093-5.729,18.821c-2.864-4.91-4.091-12.684-4.091-23.322
	c-0.409-22.504,4.91-41.326,9.411-41.735c0,0,0,0,0.409,0c0,0,0.409,0.409,0.818,0.409c1.228,1.228,2.864,5.729,3.273,19.231
	C164.363,230.983,163.136,240.394,160.681,251.032z M535.88,284.583c-3.272,5.319-7.364,8.184-11.456,9.002c0,0,0,0-0.409,0.409
	c-1.228,0-3.273,0.409-5.319-0.818c-2.455-1.637-4.501-5.729-5.729-12.275c-2.046-10.229-1.228-20.049,0-28.642
	c6.956,8.592,16.367,15.958,29.46,17.185C540.79,275.173,538.335,280.492,535.88,284.583z M544.473,260.443
	c-18.412-0.818-25.777-29.051-25.777-29.46c-3.273-11.047-2.046-22.095,2.455-29.459c2.455-3.683,5.319-5.729,8.593-6.138
	c0.409-0.409,0.818-0.409,1.228-0.409c4.5,0,10.229,5.319,13.911,20.458C547.746,228.938,547.746,245.713,544.473,260.443z"/>
</svg>
